# xmcd
#
# Track frame offsets:
#	150
#	21433
#	37196
#
# Disc length: 1542 seconds
#
# Revision: 1
# Processed by: cddbd v1.5.2PL0 Copyright (c) Steve Scherf et al.
# Submitted via: EasyCDDAExtractor 16.1.0.1
#
DISCID=23060403
DTITLE=James Taylor - October Road (Bonus Disc)
DYEAR=2002
DGENRE=Country/Folk/Rock/Blues
TTITLE0=Don't Let Me Be Lonely Tonight
TTITLE1=Sailing To Philadelphia
TTITLE2=Benjamin
EXTD=
EXTT0=
EXTT1=
EXTT2=
PLAYORDER=
